# xmcd
#
# Track frame offsets:
#	150
#	19803
#	41851
#	69782
#	82644
#	96766
#	115112
#	135473
#	152053
#	167980
#	187191
#	202402
#	223867
#	241681
#	259671
#	277541
#	297289
#	315664
#	330703
#
# Disc length: 4670 seconds
#
# Revision: 1
# Processed by: cddbd v1.5.2PL0 Copyright (c) Steve Scherf et al.
# Submitted via: audiograbber 1.83.01
#
DISCID=0d123c13
DTITLE=Various Artist - Country 20
DYEAR=2006
DGENRE=Country
TTITLE0=Everybody knows - Dixie Chicks
TTITLE1=Alcohol - Brad Paisley
TTITLE2=8th of november - Kris Kritofferson
TTITLE3=California Girls - Gretchen Wilson
TTITLE4=Chasin' that neon Rainbow -Alan Jackson
TTITLE5=The World - Brad Paisley
TTITLE6=Letters from home - John Micheal Montgommery
TTITLE7=Jesus take the wheel - The sidekicks
TTITLE8=Give it away - George Strait
TTITLE9=The seashore of old Mexico - George Strait
TTITLE10=So much like my dad - George Strait
TTITLE11=Better life - Keith Urban
TTITLE12=Tim McGraw
TTITLE13=Grown men don't cry - Tim McGraw
TTITLE14=When the stars go blue - Tim McGraw
TTITLE15=Red Dirt Road - Brooks and Dunn
TTITLE16=one of these Goodbyes - Lisa Hewitt
TTITLE17=Home - Alan Jackson
TTITLE18=Bring it on home - Little Big town
EXTD=
EXTT0=
EXTT1=
EXTT2=
EXTT3=
EXTT4=
EXTT5=
EXTT6=
EXTT7=
EXTT8=
EXTT9=
EXTT10=
EXTT11=
EXTT12=
EXTT13=
EXTT14=
EXTT15=
EXTT16=
EXTT17=
EXTT18=
PLAYORDER=
